# xmcd
#
# Track frame offsets:
#	182
#	20015
#	37957
#	57632
#	75490
#	95147
#	115362
#	132965
#	153637
#	168672
#
# Disc length: 2410 seconds
#
# Revision: 1
# Processed by: cddbd v1.5.1PL0 Copyright (c) Steve Scherf et al.
# Submitted via: audiograbber 1.83.01
#
DISCID=8809680a
DTITLE=Integrity Music Scripture Memory - Power of Worship
DYEAR=1993
DGENRE=
TTITLE0=Give Unto the Lord -- Ps. 29:2, Eph.3:20-21
TTITLE1=Bless the Lord, O My Soul -- Ps. 104:1, 66:4
TTITLE2=Exalt the Lord -- Ex. 15:11, Ps. 99:5
TTITLE3=I Will Extol You -- Ps. 145:1-2
TTITLE4=You Are Worthy -- Rev. 4:11
TTITLE5=Let the Heavens Rejoice -- 1 Chron. 16:31-32
TTITLE6=O Most High -- Ps. 9:1-2
TTITLE7=The Lord Reigns -- Ps. 93:1-4
TTITLE8=Be Still -- Ps. 46:10
TTITLE9=Doxology -- Jude 1:25
EXTD=
EXTT0=
EXTT1=
EXTT2=
EXTT3=
EXTT4=
EXTT5=
EXTT6=
EXTT7=
EXTT8=
EXTT9=
PLAYORDER=
